<svg clip-rule="evenodd" fill-rule="evenodd" viewBox="0 0 2041 2160" xmlns="http://www.w3.org/2000/svg">
  <path d="m1397 271-370 642-371-642h-592l963 1667 962-1667z" fill="#34495e" />
  <path d="m44 0h1952l-979 1696z" fill="#563d7c" fill-rule="nonzero" />
  <path d="m1633 392-612 1061-613-1061h-408l1021 1768 1020-1768z" fill="#41b883" />
  <path d="m767 196h339c62 0 112 14 150 43 38 28 56 71 56 129 0 36-8 66-25 91s-42 44-74 58v2c43 9 75 29 98 61 22 31 33 71 33 118 0 28-5 53-15 77s-25 44-46 61c-21 18-47 31-80 41-32 11-71 16-116 16h-320zm122 292h199c29 0 54-9 73-25 20-17 29-41 29-72 0-35-8-60-26-75-17-14-43-21-76-21h-199zm0 305h216c37 0 66-10 86-29s31-46 31-81-10-61-31-80-49-28-86-28h-216z" fill="#fff" />
</svg>
